<svg xmlns="http://www.w3.org/2000/svg" viewBox="0 0 48 56" width="48" height="56">
  <!-- 말풍선 꼬리 (아래) -->
  <polygon points="20,48 28,48 24,56" fill="white" stroke="#2D6A4F" stroke-width="1.5" stroke-linejoin="round"/>
  <!-- 몸통 원 -->
  <circle cx="24" cy="24" r="22" fill="white" stroke="#2D6A4F" stroke-width="2.5"/>
  <!-- 귀 왼쪽 -->
  <circle cx="10" cy="8" r="6" fill="#C4956A" stroke="#2D6A4F" stroke-width="1.5"/>
  <circle cx="10" cy="8" r="3" fill="#E8C9A0"/>
  <!-- 귀 오른쪽 -->
  <circle cx="38" cy="8" r="6" fill="#C4956A" stroke="#2D6A4F" stroke-width="1.5"/>
  <circle cx="38" cy="8" r="3" fill="#E8C9A0"/>
  <!-- 얼굴 배경 -->
  <circle cx="24" cy="26" r="16" fill="#D4A574"/>
  <!-- 배 -->
  <ellipse cx="24" cy="32" rx="10" ry="8" fill="#E8C9A0"/>
  <!-- 눈 왼쪽 -->
  <circle cx="18" cy="22" r="2.5" fill="#333"/>
  <circle cx="19" cy="21" r="1" fill="white"/>
  <!-- 눈 오른쪽 -->
  <circle cx="30" cy="22" r="2.5" fill="#333"/>
  <circle cx="31" cy="21" r="1" fill="white"/>
  <!-- 코 -->
  <ellipse cx="24" cy="27" rx="3" ry="2" fill="#333"/>
  <!-- 입 -->
  <path d="M21,30 Q24,33 27,30" fill="none" stroke="#333" stroke-width="1.2" stroke-linecap="round"/>
  <!-- 볼터치 왼쪽 -->
  <ellipse cx="14" cy="28" rx="3" ry="2" fill="#FFB5B5" opacity="0.5"/>
  <!-- 볼터치 오른쪽 -->
  <ellipse cx="34" cy="28" rx="3" ry="2" fill="#FFB5B5" opacity="0.5"/>
  <!-- 배낭 끈 -->
  <path d="M16,20 L16,35" stroke="#2D6A4F" stroke-width="2" stroke-linecap="round"/>
  <path d="M32,20 L32,35" stroke="#2D6A4F" stroke-width="2" stroke-linecap="round"/>
</svg>
